<mxfile host="app.diagrams.net" modified="2024-02-05T17:41:28.582Z" agent="Mozilla/5.0 (Windows NT 10.0; Win64; x64) AppleWebKit/537.36 (KHTML, like Gecko) Chrome/120.0.0.0 Safari/537.36" etag="4zxJKTOY-F4p6kMpCac-" version="23.1.1" type="github">
  <diagram name="PÃ¡gina-1" id="-NngEp_TNf_9PXBLFLkx">
    <mxGraphModel dx="1831" dy="530" grid="1" gridSize="10" guides="1" tooltips="1" connect="1" arrows="1" fold="1" page="1" pageScale="1" pageWidth="827" pageHeight="1169" math="0" shadow="0">
      <root>
        <mxCell id="0" />
        <mxCell id="1" parent="0" />
        <mxCell id="xIEQ7bfMyvlizFurUT7i-1" value="Kafka&lt;br&gt;" style="sketch=0;points=[[0,0,0],[0.25,0,0],[0.5,0,0],[0.75,0,0],[1,0,0],[0,1,0],[0.25,1,0],[0.5,1,0],[0.75,1,0],[1,1,0],[0,0.25,0],[0,0.5,0],[0,0.75,0],[1,0.25,0],[1,0.5,0],[1,0.75,0]];outlineConnect=0;fontColor=#232F3E;fillColor=#8C4FFF;strokeColor=#ffffff;dashed=0;verticalLabelPosition=bottom;verticalAlign=top;align=center;html=1;fontSize=12;fontStyle=0;aspect=fixed;shape=mxgraph.aws4.resourceIcon;resIcon=mxgraph.aws4.managed_streaming_for_kafka;" vertex="1" parent="1">
          <mxGeometry x="120" y="430" width="50" height="50" as="geometry" />
        </mxCell>
        <mxCell id="xIEQ7bfMyvlizFurUT7i-5" style="edgeStyle=orthogonalEdgeStyle;rounded=0;orthogonalLoop=1;jettySize=auto;html=1;" edge="1" parent="1" source="xIEQ7bfMyvlizFurUT7i-2" target="xIEQ7bfMyvlizFurUT7i-3">
          <mxGeometry relative="1" as="geometry" />
        </mxCell>
        <mxCell id="xIEQ7bfMyvlizFurUT7i-2" value="Kafka Streaming" style="sketch=0;points=[[0,0,0],[0.25,0,0],[0.5,0,0],[0.75,0,0],[1,0,0],[0,1,0],[0.25,1,0],[0.5,1,0],[0.75,1,0],[1,1,0],[0,0.25,0],[0,0.5,0],[0,0.75,0],[1,0.25,0],[1,0.5,0],[1,0.75,0]];outlineConnect=0;fontColor=#232F3E;fillColor=#8C4FFF;strokeColor=#ffffff;dashed=0;verticalLabelPosition=bottom;verticalAlign=top;align=center;html=1;fontSize=12;fontStyle=0;aspect=fixed;shape=mxgraph.aws4.resourceIcon;resIcon=mxgraph.aws4.managed_streaming_for_kafka;" vertex="1" parent="1">
          <mxGeometry x="360" y="430" width="50" height="50" as="geometry" />
        </mxCell>
        <mxCell id="xIEQ7bfMyvlizFurUT7i-3" value="" style="shape=image;html=1;verticalAlign=top;verticalLabelPosition=bottom;labelBackgroundColor=#ffffff;imageAspect=0;aspect=fixed;image=https://cdn2.iconfinder.com/data/icons/boxicons-logos/24/bxl-spring-boot-128.png" vertex="1" parent="1">
          <mxGeometry x="590" y="429" width="51" height="51" as="geometry" />
        </mxCell>
        <mxCell id="xIEQ7bfMyvlizFurUT7i-7" value="" style="verticalLabelPosition=bottom;html=1;verticalAlign=top;align=center;strokeColor=none;fillColor=#00BEF2;shape=mxgraph.azure.cloud;" vertex="1" parent="1">
          <mxGeometry x="-110" y="438.75" width="50" height="32.5" as="geometry" />
        </mxCell>
        <mxCell id="xIEQ7bfMyvlizFurUT7i-8" style="edgeStyle=orthogonalEdgeStyle;rounded=0;orthogonalLoop=1;jettySize=auto;html=1;entryX=1;entryY=0.5;entryDx=0;entryDy=0;entryPerimeter=0;" edge="1" parent="1" source="xIEQ7bfMyvlizFurUT7i-2" target="xIEQ7bfMyvlizFurUT7i-1">
          <mxGeometry relative="1" as="geometry" />
        </mxCell>
        <mxCell id="xIEQ7bfMyvlizFurUT7i-9" style="edgeStyle=orthogonalEdgeStyle;rounded=0;orthogonalLoop=1;jettySize=auto;html=1;entryX=0;entryY=0.5;entryDx=0;entryDy=0;entryPerimeter=0;" edge="1" parent="1" source="xIEQ7bfMyvlizFurUT7i-7" target="xIEQ7bfMyvlizFurUT7i-1">
          <mxGeometry relative="1" as="geometry" />
        </mxCell>
        <mxCell id="xIEQ7bfMyvlizFurUT7i-10" value="Topic IN" style="text;html=1;align=center;verticalAlign=middle;resizable=0;points=[];autosize=1;strokeColor=none;fillColor=none;" vertex="1" parent="1">
          <mxGeometry x="110" y="500" width="70" height="30" as="geometry" />
        </mxCell>
        <mxCell id="xIEQ7bfMyvlizFurUT7i-11" value="Lista datos&amp;nbsp;" style="text;html=1;align=center;verticalAlign=middle;resizable=0;points=[];autosize=1;strokeColor=none;fillColor=none;" vertex="1" parent="1">
          <mxGeometry x="345" y="380" width="80" height="30" as="geometry" />
        </mxCell>
        <mxCell id="xIEQ7bfMyvlizFurUT7i-21" style="edgeStyle=orthogonalEdgeStyle;rounded=0;orthogonalLoop=1;jettySize=auto;html=1;entryX=0;entryY=0.5;entryDx=0;entryDy=0;" edge="1" parent="1" source="xIEQ7bfMyvlizFurUT7i-12" target="xIEQ7bfMyvlizFurUT7i-15">
          <mxGeometry relative="1" as="geometry" />
        </mxCell>
        <mxCell id="xIEQ7bfMyvlizFurUT7i-12" value="Kafka&lt;br&gt;" style="sketch=0;points=[[0,0,0],[0.25,0,0],[0.5,0,0],[0.75,0,0],[1,0,0],[0,1,0],[0.25,1,0],[0.5,1,0],[0.75,1,0],[1,1,0],[0,0.25,0],[0,0.5,0],[0,0.75,0],[1,0.25,0],[1,0.5,0],[1,0.75,0]];outlineConnect=0;fontColor=#232F3E;fillColor=#8C4FFF;strokeColor=#ffffff;dashed=0;verticalLabelPosition=bottom;verticalAlign=top;align=center;html=1;fontSize=12;fontStyle=0;aspect=fixed;shape=mxgraph.aws4.resourceIcon;resIcon=mxgraph.aws4.managed_streaming_for_kafka;" vertex="1" parent="1">
          <mxGeometry x="130" y="620" width="50" height="50" as="geometry" />
        </mxCell>
        <mxCell id="xIEQ7bfMyvlizFurUT7i-15" value="" style="shape=image;html=1;verticalAlign=top;verticalLabelPosition=bottom;labelBackgroundColor=#ffffff;imageAspect=0;aspect=fixed;image=https://cdn2.iconfinder.com/data/icons/boxicons-logos/24/bxl-spring-boot-128.png" vertex="1" parent="1">
          <mxGeometry x="590" y="619" width="51" height="51" as="geometry" />
        </mxCell>
        <mxCell id="xIEQ7bfMyvlizFurUT7i-16" value="" style="verticalLabelPosition=bottom;html=1;verticalAlign=top;align=center;strokeColor=none;fillColor=#00BEF2;shape=mxgraph.azure.cloud;" vertex="1" parent="1">
          <mxGeometry x="-106" y="628.75" width="50" height="32.5" as="geometry" />
        </mxCell>
        <mxCell id="xIEQ7bfMyvlizFurUT7i-18" style="edgeStyle=orthogonalEdgeStyle;rounded=0;orthogonalLoop=1;jettySize=auto;html=1;entryX=0;entryY=0.5;entryDx=0;entryDy=0;entryPerimeter=0;" edge="1" parent="1" source="xIEQ7bfMyvlizFurUT7i-16" target="xIEQ7bfMyvlizFurUT7i-12">
          <mxGeometry relative="1" as="geometry" />
        </mxCell>
        <mxCell id="xIEQ7bfMyvlizFurUT7i-19" value="Topic&amp;nbsp;&lt;br&gt;" style="text;html=1;align=center;verticalAlign=middle;resizable=0;points=[];autosize=1;strokeColor=none;fillColor=none;" vertex="1" parent="1">
          <mxGeometry x="130" y="698" width="50" height="30" as="geometry" />
        </mxCell>
        <mxCell id="xIEQ7bfMyvlizFurUT7i-22" value="Provider" style="text;html=1;align=center;verticalAlign=middle;resizable=0;points=[];autosize=1;strokeColor=none;fillColor=none;" vertex="1" parent="1">
          <mxGeometry x="-15" y="648" width="70" height="30" as="geometry" />
        </mxCell>
        <mxCell id="xIEQ7bfMyvlizFurUT7i-23" value="Consumer" style="text;html=1;align=center;verticalAlign=middle;resizable=0;points=[];autosize=1;strokeColor=none;fillColor=none;" vertex="1" parent="1">
          <mxGeometry x="380" y="658" width="80" height="30" as="geometry" />
        </mxCell>
        <mxCell id="xIEQ7bfMyvlizFurUT7i-24" value="Provider" style="text;html=1;align=center;verticalAlign=middle;resizable=0;points=[];autosize=1;strokeColor=none;fillColor=none;" vertex="1" parent="1">
          <mxGeometry x="-15" y="470" width="70" height="30" as="geometry" />
        </mxCell>
        <mxCell id="xIEQ7bfMyvlizFurUT7i-25" value="Consumer" style="text;html=1;align=center;verticalAlign=middle;resizable=0;points=[];autosize=1;strokeColor=none;fillColor=none;" vertex="1" parent="1">
          <mxGeometry x="460" y="460" width="80" height="30" as="geometry" />
        </mxCell>
      </root>
    </mxGraphModel>
  </diagram>
</mxfile>
